<?xml version="1.0" encoding="UTF-8"?>
<svg xmlns="http://www.w3.org/2000/svg" xmlns:xlink="http://www.w3.org/1999/xlink" width="86px" height="116px" viewBox="0 0 86 116" version="1.1">
    <g id="机器人/任务状态" stroke="none" stroke-width="1" fill="none" fill-rule="evenodd">
        <g id="编组" transform="translate(1.100000, 0.000000)">
            <path d="M3.16980949,95.9606 C12.7926095,107.526 27.0596095,114.2151 42.1054095,114.2151 C57.1523095,114.2151 71.4182095,107.526 81.0421095,95.9606 C84.7128095,75.3796 85.1946095,54.2057 82.4919095,33.4784 C74.2276095,18.9639 58.8089095,10 42.1054095,10 C25.4030095,10 9.98430949,18.9639 1.72000949,33.4784 C-0.982690509,54.2057 -0.500890509,75.3796 3.16980949,95.9606 Z" id="Stroke-1" fill="#000000"/>
            <path d="M2.61998,24.51592 C12.24278,12.94942 26.50978,6.26142 41.55558,6.26142 C56.60248,6.26142 70.86838,12.94942 80.49228,24.51592 C79.87848,21.07292 79.17558,17.65082 78.38248,14.24522 C68.14698,5.41002 55.07678,0.54912 41.55558,0.54912 C28.03548,0.54912 14.96528,5.41002 4.72868,14.24522 C3.93558,17.65082 3.23378,21.07292 2.61998,24.51592 Z" id="Stroke-3" fill="#FFFFFF"/>
            <path d="M42,21 C31.1103552,21 20.7102459,25.3084195 13.0098634,33.0089072 C5.30948087,40.7082747 1,51.1096463 1,62.0005601 C1,72.8903537 5.30836066,83.2906051 13.0087432,90.9910928 C20.7091257,98.6915805 31.109235,103 42,103 C52.8896448,103 63.2897541,98.6927007 70.9901366,90.992213 C78.6905191,83.2917253 83,72.8903537 83,62.0005601 C83,51.1107665 78.6916393,40.7093949 70.9912568,33.0100275 C63.2908743,25.3084195 52.890765,21 42,21 Z" id="Stroke-5" fill="#FFFFFF"/>
        </g>
    </g>
</svg>
